<!DOCTYPE svg PUBLIC "-//W3C//DTD SVG 1.1//EN" "http://www.w3.org/Graphics/SVG/1.1/DTD/svg11.dtd">

<!-- Uploaded to: SVG Repo, www.svgrepo.com, Transformed by: SVG Repo Mixer Tools -->
<svg fill="#9042e5" height="800px" width="800px" version="1.1" id="Capa_1" xmlns="http://www.w3.org/2000/svg" xmlns:xlink="http://www.w3.org/1999/xlink" viewBox="0 0 212.00 212.00" xml:space="preserve" stroke="#aa65d7" stroke-width="0.00212" transform="rotate(45)">

<g id="SVGRepo_bgCarrier" stroke-width="0"/>

<g id="SVGRepo_tracerCarrier" stroke-linecap="round" stroke-linejoin="round"/>

<g id="SVGRepo_iconCarrier"> <path d="M0,128.023v21h31.501V180.5h31.476V212h21v-31.5H95.5V212h21v-31.5h11.523V212h21v-31.5h31.476v-31.477H212v-21h-31.501 V116.5H212v-21h-31.501V83.977H212v-21h-31.501V31.5h-31.476V0h-21v31.5H116.5V0h-21v31.5H83.977V0h-21v31.5H31.501v31.477H0v21 h31.501V95.5H0v21h31.501v11.523H0z M66.475,66.475h79.051v79.051H66.475V66.475z"/> </g>

</svg>